<svg xmlns="http://www.w3.org/2000/svg" width="395" height="220.035" viewBox="0 0 395 220.035"><g transform="translate(-103.33 -121.288)" opacity="0.337"><g transform="translate(103.33 284.289)"><path d="M133.606,384.848c-13.392,0-22.034,13.489-22.034,26.882s8.8,24.256,22.2,24.256a24.543,24.543,0,0,0,15.64-5.713l2.622,3.091a28.46,28.46,0,0,1-18.262,6.65c-18.73,0-30.437-12.737-30.437-28.377s11.706-28.377,30.437-28.377a28.578,28.578,0,0,1,15.546,4.682l1.311-2.716.749-.093,1.592,11.051-.75.094s-5.724-11.427-18.554-11.427Z" transform="translate(-103.33 -383.118)" fill="#061724"/><path d="M265.265,411.654c0,18.45-14.329,28.376-29.5,28.376S206.17,430.1,206.17,411.654c0-18.543,14.423-28.47,29.594-28.47S265.265,393.111,265.265,411.654Zm-6.454,0c0-14.687-9.117-26.6-23.044-26.6s-23.144,11.913-23.144,26.6,9.218,26.6,23.144,26.6S258.812,426.34,258.812,411.654Z" transform="translate(-142.127 -383.09)" fill="#061724"/><path d="M360.792,409.256c7.773,2.248,12.269,7.4,12.269,14.7,0,10.114-8.335,16.108-22.2,16.108H327.358v-.749l1.5-.562a6.11,6.11,0,0,0,3.839-5.713V390.057a6.11,6.11,0,0,0-3.839-5.713l-1.5-.562v-.749h21.259c10.863,0,19.573,2.061,19.573,14.329,0,5.151-2.809,9.085-7.3,11.52ZM340.844,385.1v24h7.679c4.963,0,11.332-2.564,11.332-11.462S353.487,385.2,348.523,385.2Zm9.833,53.164c6.556,0,14.047-4.287,14.047-14.308,0-8.616-3.839-13.138-13.954-13.138h-9.927v27.445h9.833Z" transform="translate(-187.845 -383.033)" fill="#061724"/><path d="M485.858,439.263v.749H464.88v-.749l3.371-1.311a3.051,3.051,0,0,0,1.78-3.933l-5.994-15.64-20.4-.007L437.553,434.2c-.562,1.592,1.047,3.378,2.639,3.941l3.429,1.124v.749H428.168v-.749l.75-.281A11.134,11.134,0,0,0,435.1,432.8l19.1-49.542h4.4l18.917,49.074a11.133,11.133,0,0,0,6.181,6.181Zm-23.32-24.912-9-23.191L445,414.352Z" transform="translate(-225.876 -383.118)" fill="#061724"/><path d="M593.635,429.016l-1.593,11.051H549.43v-.749l1.5-.562a6.109,6.109,0,0,0,3.84-5.713V390.057a6.11,6.11,0,0,0-3.84-5.713l-1.5-.562v-.749h18.918v.749l-1.5.562a6.11,6.11,0,0,0-3.84,5.713v47.907h20.978a5.98,5.98,0,0,0,4.494-2.06l4.4-7.074Z" transform="translate(-271.622 -383.033)" fill="#061724"/><path d="M705.731,394.159l-.75.093-4.4-6.368a5.986,5.986,0,0,0-4.5-2.061h-12.55v47.2a6.109,6.109,0,0,0,3.84,5.712l1.5.562v.749H669.955V439.3l1.5-.562a6.109,6.109,0,0,0,3.84-5.712v-47.2h-12.55a5.985,5.985,0,0,0-4.5,2.061l-4.4,6.368-.749-.093,1.592-11.051h49.448Z" transform="translate(-310.731 -383.061)" fill="#061724"/></g><g transform="translate(214.465 121.288)"><path d="M433.775,209.677c-.008-.1-.016-.209-.032-.321-.032-.328-.088-.649-.144-.977-.032-.16-.072-.328-.1-.488a1.256,1.256,0,0,1-.032-.169c-.024-.1-.056-.184-.08-.28-.072-.256-.136-.513-.224-.761-.032-.1-.072-.2-.1-.3a13.643,13.643,0,0,0-1.178-2.467c-.072-.12-.136-.24-.208-.352-.136-.2-.28-.4-.425-.6-.088-.12-.176-.248-.272-.369-.152-.184-.3-.369-.456-.545-.1-.12-.216-.24-.321-.352-.16-.176-.32-.344-.488-.5-.12-.112-.24-.216-.361-.328-.176-.153-.353-.313-.529-.456-.128-.1-.256-.192-.384-.288-.336-.248-.681-.481-1.033-.7-.168-.1-.321-.2-.489-.288-.176-.1-.361-.184-.545-.28s-.36-.176-.544-.265-.369-.152-.553-.224c-.2-.072-.4-.152-.6-.216q-.277-.1-.553-.168c-.224-.064-.44-.12-.664-.176-.176-.04-.352-.08-.537-.112q-.385-.073-.769-.12c-.16-.024-.312-.049-.473-.064-.4-.032-.809-.056-1.225-.056-.016,0-.024-.008-.041-.008H420.4c-.056,0-.1.008-.152.008-.417.008-.841.024-1.249.072-.192.016-.377.057-.561.08-.272.04-.544.08-.809.136-.032,0-.056.008-.08.008a.888.888,0,0,0-.088.032,13.486,13.486,0,0,0-3.2,1.161.532.532,0,0,1-.088.032.7.7,0,0,0-.08.049,13.288,13.288,0,0,0-3.308,2.491c-.032.032-.064.072-.1.1-.288.3-.553.6-.809.921-.056.08-.112.16-.168.232-.217.288-.425.577-.625.881-.064.1-.128.208-.184.312-.176.288-.344.585-.5.889l-.168.361c-.144.3-.272.608-.392.929-.048.12-.088.24-.136.361-.112.344-.216.689-.3,1.041a1.855,1.855,0,0,0-.056.192c-.016.056-.024.112-.04.169-.032.16-.072.328-.1.488-.056.328-.112.649-.144.977-.016.112-.024.216-.032.321-.032.392-.056.785-.056,1.177v.024c0,.4.024.8.056,1.193.008.088.016.184.024.281.04.36.1.712.161,1.057.032.136.056.265.088.4a2.038,2.038,0,0,0,.056.232c.024.113.056.217.088.321.064.232.128.473.2.7.048.136.1.256.144.392a13.185,13.185,0,0,0,1.137,2.371c.08.128.144.248.224.369.128.2.265.384.4.569.1.144.2.28.3.409.136.176.28.344.425.5.12.145.24.281.368.417.144.145.289.3.441.441s.3.28.456.416c.136.12.28.249.425.369.208.168.432.328.656.489.1.072.192.152.3.216.329.224.665.425,1.009.617.112.064.224.112.336.168.257.136.5.257.769.369.136.064.272.112.409.168.248.1.5.192.753.272.144.049.288.1.432.136.257.08.529.144.793.208.144.032.28.064.424.088.3.056.593.1.889.136.128.016.248.04.369.048.424.04.849.064,1.289.064h.056c.409,0,.817-.024,1.218-.064.161-.016.313-.04.473-.056.257-.04.513-.072.761-.12.184-.032.361-.072.545-.12.216-.048.44-.1.649-.168.192-.048.384-.112.569-.168l.577-.217c.192-.072.384-.144.577-.232.168-.072.328-.152.489-.232.208-.1.408-.2.608-.3.048-.032.1-.064.152-.1a13.54,13.54,0,0,0,1.5-1.009,1.974,1.974,0,0,0,.209-.153c.216-.168.425-.36.633-.544.08-.072.16-.144.24-.224.2-.192.392-.385.585-.593.072-.08.144-.153.216-.232.184-.216.369-.433.545-.657.056-.072.1-.144.16-.216q.276-.361.529-.745c.016-.024.032-.056.048-.08a13.36,13.36,0,0,0,1.321-2.723c.032-.088.064-.168.1-.257.08-.24.144-.488.216-.737.024-.1.056-.2.088-.3.016-.072.032-.152.048-.232.032-.136.056-.264.088-.4.064-.344.12-.7.16-1.057l.024-.288c.032-.385.056-.785.056-1.186,0-.008.008-.008.008-.016v-.008C433.839,210.462,433.806,210.069,433.775,209.677Zm-6.608-1.914a3.18,3.18,0,1,1,3.18-3.18A3.182,3.182,0,0,1,427.167,207.763Z" transform="translate(-329.015 -150.013)" fill="#061724"/><path d="M454.246,177.8c-.272-.008-.544-.024-.825-.024-.281-.016-.561-.024-.841-.032-.849-.032-1.7-.04-2.555-.04h-.1c-.729,0-1.458.008-2.178.04-.169,0-.337,0-.505.008-.9.024-1.786.056-2.675.12a.035.035,0,0,0-.04,0A90.89,90.89,0,0,0,412,185.95a.051.051,0,0,0,.048.04,85.767,85.767,0,0,1,12.311-2.347,107.2,107.2,0,0,1,12.847-.809c2.611,0,5.2.112,7.746.344a85.375,85.375,0,0,1-6.921,12.231.41.41,0,0,1-.04.064,81.689,81.689,0,0,1-33.641,29.708c-.12.064-.24.128-.369.184a86.289,86.289,0,0,1-37.117,8.306c-.2,0-.408,0-.608-.008q-3.3-.012-6.528-.28a85.163,85.163,0,0,1-42.275-15.2c-1.754-1.234-3.444-2.531-5.086-3.885q-2.728-2.259-5.222-4.726c-.7-.689-1.4-1.394-2.066-2.114.809.352,1.626.681,2.451,1,2,.793,4.045,1.522,6.12,2.171q2.751.865,5.575,1.578a98.144,98.144,0,0,0,47.962-.1q3.808-.973,7.481-2.251c1.009-.336,2.01-.7,3-1.081.04-.016.088-.032.128-.048q1.322-.5,2.619-1.057a.087.087,0,0,0,.056-.024,28.028,28.028,0,0,0,4.389-2.547c.008,0,.008-.007.024-.016a28.035,28.035,0,0,0,5.783-5.439c.008-.016.008-.024.016-.024a27.907,27.907,0,0,0,2.731-4.1,24.254,24.254,0,1,1,.745-25.551,28.369,28.369,0,0,0-9.42-11.134c.008-.024.016-.032.016-.04a.1.1,0,0,1,.008-.04c.136-.008.272-.024.409-.032.833-.128,1.666-.24,2.507-.336a88.039,88.039,0,0,1,26.464.841c.024.008.056.008.08.016,11.526,2.138,30.053,7.906,39.328,14.073-8.563-12.959-21.963-25.847-33.232-34.5a85.084,85.084,0,0,0-49.244-17.469.048.048,0,0,1-.008.032c-.7-.032-1.418-.056-2.13-.072-.344-.008-.7-.016-1.057-.016h-.425c-.112,0-.216,0-.328.007-.272,0-.537.008-.8.016-.184,0-.361.008-.545.016-.088,0-.176,0-.264.008-.5.016-.985.032-1.482.056-.08.008-.168.008-.249.016-.528.024-1.049.056-1.577.1-.049,0-.1.008-.153.008-.032,0-.072.007-.1.007-1.113.08-2.219.176-3.316.3-.032,0-.056.008-.088.008h-.008a.07.07,0,0,0-.04.008.073.073,0,0,0-.04.008c-.288.024-.577.056-.857.1-.249.024-.5.056-.737.088-.04.008-.088.008-.128.016-.5.064-1.018.136-1.522.208l-.473.072q-.372.048-.745.12c-.248.032-.5.08-.745.12-.056.007-.1.016-.152.024-.521.088-1.026.176-1.538.272a.347.347,0,0,1-.08.016c-.561.112-1.122.216-1.675.336-.5.1-.985.209-1.473.321-.184.04-.361.08-.537.12-.465.112-.929.216-1.394.336-.56.136-1.122.28-1.674.432s-1.113.3-1.666.465-1.105.329-1.658.5-1.1.344-1.642.529-1.082.361-1.618.552-1.082.385-1.618.585-1.065.409-1.594.617c-.473.184-.953.376-1.426.577-.673.28-1.337.56-1.994.857-.392.168-.777.344-1.161.521-1.586.737-3.14,1.506-4.67,2.323-.465.24-.913.488-1.369.745-.4.224-.8.448-1.2.681-.369.209-.729.425-1.1.641-1.586.937-3.132,1.931-4.646,2.964q-.709.469-1.394.961c-.441.313-.873.625-1.306.937-.032.024-.064.049-.088.064-.448.336-.889.665-1.321,1-.377.288-.745.569-1.113.865-.513.409-1.026.817-1.53,1.234-.432.361-.865.721-1.29,1.089s-.849.729-1.265,1.105c-.392.352-.777.7-1.161,1.057-.192.176-.376.344-.56.529-.321.288-.633.592-.945.9a88.877,88.877,0,0,0-7.713,8.491q-.529.648-1.033,1.322a86.231,86.231,0,0,0-5.671,8.338c-.152.248-.3.5-.448.753l-.456.793q-1.754,3.051-3.245,6.247c-.192.4-.376.809-.56,1.217-.12.272-.248.544-.369.825-.777,1.778-1.506,3.588-2.162,5.422-.344.961-.673,1.922-.985,2.9-.064.2-.128.392-.184.593-.224.689-.433,1.386-.617,2.091-.049.136-.08.28-.12.417a.588.588,0,0,0-.032.128c.08.1.1.136.184.248.3.008.617.024.929.032.144.007.3.007.44.016.1,0,.209.008.313.008.849.032,1.7.04,2.555.04h.168c.184,0,.377,0,.56-.007.537,0,1.082-.016,1.618-.024q4.134-.108,8.17-.569a90.6,90.6,0,0,0,30.092-8.867.139.139,0,0,1,.032-.04.046.046,0,0,0-.032-.08h-.2a86.667,86.667,0,0,1-27.577,4.461,88.157,88.157,0,0,1-9.708-.537,88.319,88.319,0,0,1,20.5-27.834c.248-.232.5-.456.753-.681.409-.377.833-.745,1.249-1.105.545-.489,1.105-.962,1.666-1.41,1.626-1.361,3.316-2.643,5.046-3.86.064-.048.128-.1.192-.136a85.6,85.6,0,0,1,49.155-15.307c.7,0,1.41.008,2.107.032,2.186.049,4.341.176,6.48.393a84.954,84.954,0,0,1,42.131,16.012c1.29.937,2.547,1.922,3.773,2.939a78.473,78.473,0,0,1,7.553,7.112,87.9,87.9,0,0,0-8.843-3.42q-2.042-.673-4.133-1.241c-.024-.008-.04-.008-.064-.016a92.121,92.121,0,0,0-54.345,1.762c-.008,0-.016.007-.024.007-.313.1-.617.209-.921.321a3.72,3.72,0,0,0-.385.144A29.737,29.737,0,0,0,342.463,182.6a30.23,30.23,0,0,0,9.78,22.42,1.967,1.967,0,0,0,.209.152.121.121,0,0,0,.04.032.039.039,0,0,1,.016.049c0,.016-.016.032-.04.04-.712.08-1.434.152-2.154.208a87.078,87.078,0,0,1-12.175.849c-5.463,0-15.988-1.29-16.06-1.3-11.51-2.139-29.62-7.505-38.887-13.672-.008,0-.008,0-.016.008,5.791,11.822,21.01,25.3,32.816,34.089a87.2,87.2,0,0,0,41.571,16.893c.352.04.712.08,1.065.112.521.056,1.041.1,1.562.152q3.965.336,8.018.352a91.8,91.8,0,0,0,20.272-2.371c.2-.04.4-.088.6-.144a90.352,90.352,0,0,0,25.944-10.661.163.163,0,0,0,.08-.048c.865-.537,1.731-1.081,2.579-1.634.425-.28.849-.56,1.274-.849.016,0,.024-.008.032-.024.377-.256.745-.521,1.122-.785.9-.625,1.778-1.265,2.643-1.931.377-.288.753-.577,1.122-.865.1-.072.2-.144.3-.232.344-.272.681-.545,1.018-.817.007,0,.007,0,.007-.008.721-.593,1.442-1.193,2.147-1.81.112-.088.224-.192.337-.288.344-.3.689-.608,1.025-.921.544-.5,1.081-.993,1.618-1.5h.008c.529-.513,1.049-1.025,1.57-1.546.12-.112.232-.217.336-.329.3-.3.6-.617.9-.929.665-.681,1.314-1.386,1.955-2.09l.232-.257c.24-.272.481-.545.712-.817q1.695-1.935,3.268-3.965c.28-.36.56-.721.833-1.089.473-.625.937-1.257,1.386-1.9.28-.392.56-.785.825-1.186.376-.536.737-1.073,1.089-1.618s.713-1.105,1.065-1.658c.449-.729.889-1.458,1.322-2.2.32-.545.625-1.089.929-1.634l.1-.168c.313-.569.625-1.145.921-1.722.313-.609.625-1.217.929-1.827l.144-.288c.152-.328.312-.649.465-.977l.12-.265a.307.307,0,0,0,.048-.1c.32-.673.625-1.353.921-2.035q1.154-2.619,2.114-5.318c.425-1.153.809-2.315,1.169-3.492.232-.713.441-1.425.641-2.147.032-.1.056-.216.089-.32.04-.136.072-.273.112-.409C454.43,177.812,454.343,177.8,454.246,177.8Z" transform="translate(-281.789 -121.288)" fill="#061724"/></g></g></svg>