<svg xmlns="http://www.w3.org/2000/svg" width="336.483" height="48.585" viewBox="0 0 336.483 48.585"><g transform="translate(-103.33 -383.033)"><path d="M129.12,384.612c-11.408,0-18.77,11.491-18.77,22.9s7.5,20.663,18.907,20.663a20.907,20.907,0,0,0,13.323-4.867l2.233,2.633a24.244,24.244,0,0,1-15.557,5.665c-15.956,0-25.928-10.85-25.928-24.173s9.972-24.173,25.928-24.173a24.344,24.344,0,0,1,13.243,3.989l1.117-2.313.638-.08,1.356,9.414-.639.08s-4.876-9.734-15.8-9.734Z" transform="translate(0 -0.106)" fill="#061724"/><path d="M256.51,407.436c0,15.716-12.206,24.172-25.13,24.172s-25.21-8.456-25.21-24.172c0-15.8,12.286-24.253,25.21-24.253S256.51,391.641,256.51,407.436Zm-5.5,0c0-12.511-7.766-22.659-19.63-22.659s-19.716,10.148-19.716,22.659,7.852,22.659,19.716,22.659S251.013,419.947,251.013,407.436Z" transform="translate(-48.284 -0.071)" fill="#061724"/><path d="M355.839,405.371c6.622,1.915,10.451,6.3,10.451,12.525,0,8.616-7.1,13.722-18.907,13.722H327.358v-.638l1.276-.479a5.205,5.205,0,0,0,3.27-4.867V389.016a5.2,5.2,0,0,0-3.27-4.867l-1.276-.478v-.638h18.11c9.254,0,16.673,1.755,16.673,12.206,0,4.388-2.393,7.739-6.223,9.813ZM338.846,384.8v20.446h6.542c4.228,0,9.653-2.185,9.653-9.764s-5.425-10.6-9.653-10.6Zm8.376,45.288c5.584,0,11.966-3.652,11.966-12.188,0-7.34-3.27-11.191-11.887-11.191h-8.456v23.379h8.376Z" transform="translate(-105.183)" fill="#061724"/><path d="M477.312,430.967v.638h-17.87v-.638l2.872-1.117a2.6,2.6,0,0,0,1.516-3.351l-5.106-13.323-17.375-.006-5.186,13.483c-.479,1.356.892,2.878,2.248,3.357l2.921.958v.638H428.168v-.638l.639-.24a9.484,9.484,0,0,0,5.265-5.265l16.274-42.2h3.75l16.115,41.8a9.483,9.483,0,0,0,5.266,5.265Zm-19.865-21.221L449.78,389.99,442.5,409.745Z" transform="translate(-152.514 -0.106)" fill="#061724"/><path d="M587.086,422.2l-1.357,9.414h-36.3v-.638l1.276-.479a5.2,5.2,0,0,0,3.271-4.867V389.016a5.2,5.2,0,0,0-3.271-4.867l-1.276-.478v-.638h16.115v.638l-1.276.478A5.2,5.2,0,0,0,561,389.016v40.81h17.871a5.094,5.094,0,0,0,3.829-1.755l3.75-6.026Z" transform="translate(-209.448)" fill="#061724"/><path d="M697.933,392.522l-.639.08-3.749-5.425a5.1,5.1,0,0,0-3.83-1.755h-10.69V425.63A5.2,5.2,0,0,0,682.3,430.5l1.277.479v.638H667.458v-.638l1.276-.479a5.2,5.2,0,0,0,3.271-4.866V385.421h-10.69a5.1,5.1,0,0,0-3.829,1.755l-3.75,5.425-.638-.08,1.356-9.414h42.123Z" transform="translate(-258.121 -0.035)" fill="#061724"/></g></svg>